<svg fill="currentColor" xmlns="http://www.w3.org/2000/svg" xml:space="preserve" viewBox="0 0 330 330"><path d="m154.4 255.6 1 1 .6.4.7.5.6.4.6.3.7.4.7.3.6.2.7.2.7.2.8.2.8.1.6.1a15.2 15.2 0 0 0 3 0h.6l.8-.2.8-.2.7-.1.7-.3.6-.2.7-.4.7-.3.6-.3.6-.4.7-.5.5-.4 1-1h.1l70-70a15 15 0 0 0-21.2-21.2L180 208.8V25a15 15 0 0 0-30 0v183.8l-44.4-44.4a15 15 0 1 0-21.2 21.2l70 70z"/><path d="M315 160a15 15 0 0 0-15 15v115H30V175a15 15 0 0 0-30 0v130a15 15 0 0 0 15 15h300a15 15 0 0 0 15-15V175a15 15 0 0 0-15-15z"/></svg>