<svg xmlns="http://www.w3.org/2000/svg" xml:space="preserve" viewBox="0 0 512 512"><path fill="#cee8fa" d="M138.4 140.67h355.68v355.69H138.4z"/><g fill="#2d527c"><path d="M494.07 125H138.4a15.66 15.66 0 0 0-15.66 15.66v215.02H33.6v-59.3a15.66 15.66 0 0 0-31.32 0v74.96c0 8.65 7.01 15.66 15.66 15.66h104.8v109.34c0 8.65 7.01 15.66 15.66 15.66h355.68c8.65 0 15.66-7.01 15.66-15.66V140.66c0-8.65-7.01-15.66-15.66-15.66zm-15.66 355.68H154.05V156.32h324.36v324.36z"/><path d="M17.93 194.04c8.65 0 15.66-7.01 15.66-15.66V31.32h324.36v37.06a15.66 15.66 0 0 0 31.32 0V15.66C389.27 7 382.26 0 373.6 0H17.93A15.66 15.66 0 0 0 2.27 15.66v162.72c0 8.65 7.01 15.66 15.66 15.66zM317.8 332.58c4.02 0 8.02-1.53 11.08-4.58l64.84-64.84v36.36a15.66 15.66 0 0 0 31.31 0v-74.16c0-8.65-7-15.66-15.65-15.66H335.2a15.66 15.66 0 0 0 0 31.32h36.36l-64.83 64.83a15.66 15.66 0 0 0 11.07 26.73zM223.09 427.3h74.16a15.66 15.66 0 0 0 0-31.31h-36.36l21.4-21.4a15.66 15.66 0 0 0-22.14-22.15l-21.4 21.4v-36.36a15.66 15.66 0 0 0-31.33 0v74.16c0 8.65 7.02 15.67 15.67 15.67z"/></g></svg>