<svg xmlns="http://www.w3.org/2000/svg" xml:space="preserve" viewBox="0 0 38.27 38.27">
  <path fill="currentColor" d="M20.62 10.48V5.84a2.14 2.14 0 0 0-3.42-1.7l-9.48 7.14a3.3 3.3 0 0 0-1.4 1.06L.85 16.46a2.13 2.13 0 0 0 .01 3.42L17.22 32a2.13 2.13 0 0 0 3.4-1.71v-5.52h.04c3.84 0 10.69 1.09 13.36 8.39a2.13 2.13 0 0 0 4.12-.46c.05-.4 1.21-9.68-4.46-16.23-3.06-3.53-7.45-5.54-13.06-6zm.04 10.04c-1.44 0-2.38.13-2.48.14a2.13 2.13 0 0 0-1.83 2.11v3.29L5.7 18.16l3.56-2.69c.14-.1.26-.22.36-.35.16-.06.3-.15.44-.25l6.3-4.75v2.4c0 1.17.94 2.12 2.11 2.13 5.35.07 9.38 1.61 11.98 4.6a14 14 0 0 1 2.83 5.47c-4.35-3.68-9.85-4.2-12.61-4.2z"/>
</svg>
