<svg xmlns="http://www.w3.org/2000/svg" viewBox="0 0 135.47 145.94">
  <path fill="#e2e3e5" d="M65.48 118.85c0 13.77-10.84 24.84-24.61 24.84-13.78 0-25.07-11.07-25.07-24.84s11.3-24.83 25.07-24.83 24.6 11.06 24.6 24.83m67.73 0c0 13.77-10.83 24.84-24.6 24.84-13.77 0-25.06-11.07-25.06-24.84s11.29-24.83 25.06-24.83 24.6 11.06 24.6 24.83"/>
  <path fill="#ccc" d="M58.7 118.85a25 25 0 0 1-3.84 13.55 34.4 34.4 0 0 1-3.6 4.51 23.89 23.89 0 0 1-16.94 6.78c-14 0-25.29-11.07-25.29-24.84S20.32 94.02 34.1 94.02s24.61 11.06 24.61 24.83m67.73 0c0 13.77-10.84 24.84-24.61 24.84-13.78 0-25.07-11.07-25.07-24.84s11.3-24.83 25.07-24.83 24.6 11.06 24.6 24.83"/>
  <path fill="#e2e3e5" d="M119.66 118.85c0 13.77-4.29 22.58-18.06 22.58s-24.84-8.8-24.84-22.58c0-13.77 11.07-22.58 24.84-22.58s18.06 8.8 18.06 22.58m-67.73 0c0 13.77-4.3 22.58-18.06 22.58-13.78 0-24.84-8.8-24.84-22.58 0-13.77 11.06-22.58 24.84-22.58 13.77 0 18.06 8.8 18.06 22.58"/>
  <path fill="#fff" d="M101.37 143.69v-2.26c-13.54 0-17.83-9.03-17.83-22.58 0-13.54 4.29-22.58 17.83-22.58v-2.25c-13.77 0-24.6 11.06-24.6 24.83 0 13.77 10.83 24.84 24.6 24.84m-67.73 0v-2.26c-13.55 0-17.84-9.03-17.84-22.58 0-13.54 4.3-22.58 17.84-22.58v-2.25a24 24 0 0 0-15.58 5.64 25.88 25.88 0 0 0-7.45 10.16 29.22 29.22 0 0 0-1.58 9.03c0 13.77 10.84 24.84 24.61 24.84"/>
  <path fill="#333" d="M34.1 145.94c-15.13 0-27.33-12.19-27.33-27.09 0-2.48.45-4.97 1.13-7.45.23-1.13 1.58-1.8 2.71-1.58a2.45 2.45 0 0 1 1.58 2.71c-.68 2.26-.9 4.29-.9 6.32a22.7 22.7 0 0 0 32.96 20.1c1.13-.46 2.49 0 2.94.9.45 1.13 0 2.48-.9 2.93a23.43 23.43 0 0 1-12.2 3.16zm22.34-14.44c-.22 0-.67 0-.9-.23-1.13-.45-1.58-1.8-1.13-2.94a22.35 22.35 0 0 0 2.03-9.48A22.3 22.3 0 0 0 34.1 96.27c-4.74 0-9.25 1.36-13.1 4.07-1.12.68-2.48.45-3.15-.45-.68-1.13-.46-2.49.45-3.16a27.2 27.2 0 0 1 15.58-4.97 27.17 27.17 0 0 1 27.09 27.1c0 4.06-.9 7.9-2.48 11.28-.46.9-1.13 1.36-2.04 1.36z"/>
  <path fill="#333" d="M58.7 121.1c-.45 0-.9 0-1.13-.22-1.13-.67-1.35-2.03-.67-3.16 2.93-4.51 6.77-7 10.83-7 4.07 0 7.9 2.49 10.84 7a2.43 2.43 0 0 1-.68 3.16 2.43 2.43 0 0 1-3.16-.67c-2.03-3.16-4.51-4.97-7-4.97-2.7 0-5.87 2.7-7.67 5.87-.45.45-.68 0-1.36 0zm-49.67 0H2.26c-1.36 0-2.26-.9-2.26-2.25s.9-2.26 2.26-2.26h6.77c1.36 0 2.26.9 2.26 2.26 0 1.36-.9 2.26-2.26 2.26zm124.17-2.25h-6.76c-1.36 0-2.26-.9-2.26-2.26 0-1.35.9-2.25 2.26-2.25h6.77c1.35 0 2.26.9 2.26 2.25 0 1.36-.9 2.26-2.26 2.26zM15.8 105.3c0 1.36-.9 2.26-2.25 2.26-1.36 0-2.26-.9-2.26-2.26 0-1.35.9-2.25 2.26-2.25 1.35 0 2.25.9 2.25 2.25m38.39 31.61c0 1.36-.9 2.26-2.26 2.26-1.36 0-2.26-.9-2.26-2.26 0-1.35.9-2.25 2.26-2.25 1.35 0 2.26.9 2.26 2.25"/>
  <path fill="#333" d="M101.83 145.94c-15.13 0-27.32-12.19-27.32-27.09 0-2.48.45-4.97 1.13-7.45a2.45 2.45 0 0 1 2.7-1.58 2.45 2.45 0 0 1 1.59 2.71c-.68 2.26-.9 4.29-.9 6.32a22.7 22.7 0 0 0 32.96 20.1c1.12-.46 2.48 0 2.93.9.45 1.13 0 2.48-.9 2.93a23.43 23.43 0 0 1-12.2 3.16zm22.35-14.44c-.23 0-.68 0-.9-.23-1.13-.45-1.59-1.8-1.13-2.94a22.35 22.35 0 0 0 2.03-9.48 22.3 22.3 0 0 0-22.35-22.58c-4.75 0-9.26 1.36-13.1 4.07-1.13.68-2.48.45-3.16-.45-.68-1.13-.45-2.49.45-3.16a27.2 27.2 0 0 1 15.58-4.97c14.9 0 27.1 12.19 27.1 27.1 0 4.06-.91 7.9-2.49 11.28-.45.9-1.13 1.36-2.03 1.36zm-40.64-26.2c0 1.36-.9 2.26-2.26 2.26-1.35 0-2.26-.9-2.26-2.26 0-1.35.9-2.25 2.26-2.25 1.35 0 2.26.9 2.26 2.25m38.38 31.61c0 1.36-.9 2.26-2.26 2.26-1.35 0-2.26-.9-2.26-2.26 0-1.35.9-2.25 2.26-2.25 1.36 0 2.26.9 2.26 2.25"/>
  <path fill="#37474f" d="M1.38 90.51c.5.23 1.11.26 1.62.06a75.77 75.77 0 0 1 28.06-5.36 73.66 73.66 0 0 1 33.63 7.92c.25.15.57.2.9.2h3.62c.32 0 .6-.08.9-.2a73.77 73.77 0 0 1 33.62-7.92c9.7 0 19.38 1.86 28.07 5.36.5.2 1.14.17 1.61-.06.5-.23.79-.67.79-1.16V10.67c0-.53-.36-1-.93-1.23a80.46 80.46 0 0 0-4.49-1.63v-1.4c0-.52-.36-.99-.93-1.22A73.27 73.27 0 0 0 100.72 0a71.44 71.44 0 0 0-32.55 7.66l-.8.41-.78-.4A71.44 71.44 0 0 0 34.04 0 73 73 0 0 0 6.9 5.19c-.58.23-.94.7-.94 1.22v1.4A71.2 71.2 0 0 0 1.5 9.44c-.58.23-.93.7-.93 1.23v78.7c.03.47.32.9.82 1.14zm2.55-79c.68-.26 1.4-.52 2.08-.76v67.81c0 .47.29.9.79 1.17.5.23 1.11.26 1.61.06.26-.09.5-.2.76-.3v2.54c0 .47.29.9.79 1.17.5.23 1.11.26 1.61.06a65.37 65.37 0 0 1 24.26-4.64c10.3 0 20.39 2.36 29.07 6.85l1.58.82s.04 0 .04.03l.03.02c.04 0 .04.03.07.03.04 0 .08.03.08.03.03 0 .07.03.14.03.04 0 .07.03.07.03l.14.03h.58l.14-.03c.04 0 .07 0 .07-.03.04 0 .08-.03.15-.03.03 0 .07-.03.07-.03.04 0 .04-.03.07-.03l.04-.02s.03 0 .03-.03l1.58-.82a63.73 63.73 0 0 1 29.07-6.85 65.2 65.2 0 0 1 24.26 4.64c.5.2 1.15.17 1.62-.06.5-.24.79-.67.79-1.17V79.5c.25.08.5.2.75.29.5.2 1.15.17 1.61-.06.5-.23.8-.67.8-1.17V10.72c.71.24 1.4.5 2.08.76v75.7a80.12 80.12 0 0 0-27.14-4.71A77.66 77.66 0 0 0 68.6 90.6h-2.7a78.05 78.05 0 0 0-35.02-8.13c-9.3 0-18.63 1.63-27.13 4.72V11.5Zm30.14-8.8a67.6 67.6 0 0 1 30.76 7.23l.9.46v68.98a71.6 71.6 0 0 0-31.66-7.2 73.43 73.43 0 0 0-24.72 4.26V7.26A69.14 69.14 0 0 1 34.07 2.7zm91.37 4.55V76.4a73.43 73.43 0 0 0-24.72-4.26 71.6 71.6 0 0 0-31.66 7.2V10.4l.9-.46a67.71 67.71 0 0 1 30.76-7.23c8.5 0 17.04 1.57 24.72 4.55zM12.51 78.27a69.52 69.52 0 0 1 21.56-3.4c10.91 0 21.54 2.5 30.76 7.22l.9.47v.08a67.95 67.95 0 0 0-29.9-6.76c-8 0-16 1.37-23.32 4v-1.6Zm56.55 4.29.9-.47a67.71 67.71 0 0 1 30.76-7.23c7.35 0 14.71 1.17 21.57 3.41v1.6a69.65 69.65 0 0 0-23.33-3.99 68.16 68.16 0 0 0-29.9 6.76z"/>
  <path fill="#d3d3d3" d="M65.73 82.64v-.08l-.9-.47a67.71 67.71 0 0 0-30.76-7.23 69.69 69.69 0 0 0-21.56 3.41v1.6a69.68 69.68 0 0 1 23.32-3.99 67.93 67.93 0 0 1 29.9 6.76zm56.56-2.77v-1.6a69.52 69.52 0 0 0-21.57-3.4 67.71 67.71 0 0 0-30.76 7.22l-.9.47v.08a67.95 67.95 0 0 1 29.9-6.76c8 0 16 1.37 23.33 4z"/>
  <path fill="#37474f" d="M60.42 15.8a62.64 62.64 0 0 0-26.35-5.72 63.8 63.8 0 0 0-19.27 2.98c-.54.17-.79.67-.57 1.1.21.44.82.64 1.36.47a61.66 61.66 0 0 1 18.52-2.86 60.2 60.2 0 0 1 25.3 5.48c.18.09.36.12.5.12.36 0 .72-.15.9-.44.25-.38.1-.9-.4-1.14z"/>
  <path fill="#37474f" d="M60.42 20a62.64 62.64 0 0 0-26.35-5.72 64.1 64.1 0 0 0-19.27 2.97c-.54.18-.79.67-.57 1.1.21.45.82.65 1.36.47a61.66 61.66 0 0 1 18.52-2.85 60.2 60.2 0 0 1 25.3 5.48c.18.09.36.11.5.11.36 0 .72-.14.9-.43.25-.38.1-.9-.4-1.14z"/>
  <path fill="#37474f" d="M60.42 24.19a62.64 62.64 0 0 0-26.35-5.71 64.1 64.1 0 0 0-19.27 2.97c-.54.17-.79.67-.57 1.1.21.44.82.65 1.36.47a61.66 61.66 0 0 1 18.52-2.85 60.2 60.2 0 0 1 25.3 5.47c.18.1.36.12.5.12.36 0 .72-.15.9-.44.25-.38.1-.9-.4-1.13z"/>
  <path fill="#37474f" d="M15.2 27.25c.14 0 .25-.03.4-.06a61.66 61.66 0 0 1 29.96-1.78c.57.12 1.11-.17 1.25-.64.15-.47-.21-.9-.79-1.02a64.07 64.07 0 0 0-31.22 1.87c-.54.17-.79.67-.57 1.1.14.32.54.53.97.53zm45.22 7.78a62.64 62.64 0 0 0-26.35-5.71 64.1 64.1 0 0 0-19.27 2.97c-.54.17-.79.67-.57 1.1.21.44.82.65 1.36.47a61.66 61.66 0 0 1 18.52-2.85 60.2 60.2 0 0 1 25.3 5.47c.18.1.36.12.5.12.36 0 .72-.14.9-.44.25-.38.1-.9-.4-1.13z"/>
  <path fill="#37474f" d="M60.42 39.22a62.64 62.64 0 0 0-26.35-5.7 64.1 64.1 0 0 0-19.27 2.96c-.54.18-.79.67-.57 1.11.21.44.82.64 1.36.47a61.66 61.66 0 0 1 18.52-2.86 60.2 60.2 0 0 1 25.3 5.48c.18.09.36.12.5.12.36 0 .72-.15.9-.44.25-.38.1-.9-.4-1.14z"/>
  <path fill="#37474f" d="M60.42 43.42a62.64 62.64 0 0 0-26.35-5.71 64.1 64.1 0 0 0-19.27 2.97c-.54.18-.79.67-.57 1.1.21.45.82.65 1.36.47a61.66 61.66 0 0 1 18.52-2.85 60.2 60.2 0 0 1 25.3 5.48c.18.08.36.11.5.11.36 0 .72-.14.9-.43.25-.38.1-.9-.4-1.14z"/>
  <path fill="#37474f" d="M15.2 46.5c.14 0 .25-.02.4-.05a61.66 61.66 0 0 1 18.51-2.86c.57 0 1.04-.37 1.04-.84s-.47-.85-1.04-.85a63.8 63.8 0 0 0-19.27 2.98c-.54.17-.8.67-.58 1.1.11.32.5.53.94.53zm45.22 7.76a62.64 62.64 0 0 0-26.35-5.71 64.1 64.1 0 0 0-19.27 2.97c-.54.18-.79.67-.57 1.1.21.45.82.65 1.36.47a61.66 61.66 0 0 1 18.52-2.85 60.2 60.2 0 0 1 25.3 5.48c.18.08.36.11.5.11.36 0 .72-.14.9-.43.25-.38.1-.9-.4-1.14z"/>
  <path fill="#37474f" d="M60.42 58.46a62.64 62.64 0 0 0-26.35-5.72 63.8 63.8 0 0 0-19.27 2.98c-.54.17-.79.67-.57 1.1.21.44.82.65 1.36.47a61.66 61.66 0 0 1 18.52-2.85 60.2 60.2 0 0 1 25.3 5.47c.18.1.36.12.5.12.36 0 .72-.15.9-.44.25-.38.1-.9-.4-1.13z"/>
  <path fill="#37474f" d="M60.42 62.65a62.64 62.64 0 0 0-26.35-5.7 64.1 64.1 0 0 0-19.27 2.96c-.54.18-.79.67-.57 1.11.21.44.82.64 1.36.47a61.66 61.66 0 0 1 18.52-2.86 60.2 60.2 0 0 1 25.3 5.48c.18.09.36.12.5.12.36 0 .72-.15.9-.44.25-.38.1-.9-.4-1.14z"/>
  <path fill="#37474f" d="M34.07 61.14a64.1 64.1 0 0 0-19.27 2.97c-.54.17-.79.67-.57 1.1.14.33.54.53.97.53.14 0 .25-.03.4-.06a61.66 61.66 0 0 1 18.51-2.85c.57 0 1.04-.38 1.04-.85-.03-.46-.5-.84-1.08-.84zm85.92-48.11a64.82 64.82 0 0 0-19.27-2.98 62.76 62.76 0 0 0-26.34 5.72c-.5.23-.69.75-.4 1.16a1.2 1.2 0 0 0 1.44.32 60.2 60.2 0 0 1 25.3-5.48c6.24 0 12.63 1 18.52 2.86.53.17 1.14-.06 1.36-.47.18-.46-.07-.96-.61-1.13z"/>
  <path fill="#37474f" d="M119.99 17.22a64.82 64.82 0 0 0-19.27-2.97 62.76 62.76 0 0 0-26.34 5.71c-.5.23-.69.76-.4 1.17.18.26.54.43.9.43.18 0 .36-.02.54-.11a60.2 60.2 0 0 1 25.3-5.48c6.24 0 12.63.99 18.52 2.85.53.18 1.14-.05 1.36-.46.18-.47-.07-.96-.61-1.14z"/>
  <path fill="#37474f" d="M119.99 21.42a64.82 64.82 0 0 0-19.27-2.97 62.76 62.76 0 0 0-26.34 5.7c-.5.24-.69.77-.4 1.17.18.27.54.44.9.44.18 0 .36-.03.54-.12a60.2 60.2 0 0 1 25.3-5.47c6.24 0 12.63.99 18.52 2.85.53.18 1.14-.06 1.36-.47.18-.46-.07-.96-.61-1.13zm0 10.87a64.82 64.82 0 0 0-19.27-2.97 62.76 62.76 0 0 0-26.34 5.7c-.5.24-.69.76-.4 1.17.18.27.54.44.9.44.18 0 .36-.03.54-.12a60.2 60.2 0 0 1 25.3-5.48c6.24 0 12.63 1 18.52 2.86.53.18 1.14-.06 1.36-.47.18-.46-.07-.96-.61-1.13z"/>
  <path fill="#37474f" d="M119.99 36.48a64.82 64.82 0 0 0-19.27-2.97 62.76 62.76 0 0 0-26.34 5.71c-.5.24-.69.76-.4 1.17a1.2 1.2 0 0 0 1.44.32 60.2 60.2 0 0 1 25.3-5.48c6.24 0 12.63 1 18.52 2.86.53.17 1.14-.06 1.36-.47.18-.47-.07-.96-.61-1.14z"/>
  <path fill="#37474f" d="M119.99 40.68a64.82 64.82 0 0 0-19.27-2.97 62.76 62.76 0 0 0-26.34 5.71c-.5.23-.69.76-.4 1.17.18.26.54.43.9.43.18 0 .36-.03.54-.11a60.2 60.2 0 0 1 25.3-5.48c6.24 0 12.63.99 18.52 2.85.53.18 1.14-.05 1.36-.46.18-.47-.07-.96-.61-1.14z"/>
  <path fill="#37474f" d="M74.91 49.22c.18 0 .36-.03.54-.12a55.5 55.5 0 0 1 8.87-3.26c.54-.15.82-.64.64-1.08-.18-.44-.79-.67-1.33-.52a59.03 59.03 0 0 0-9.22 3.4c-.5.24-.68.76-.4 1.17.19.23.55.4.9.4zm45.08 2.28a64.82 64.82 0 0 0-19.27-2.98 62.76 62.76 0 0 0-26.34 5.71c-.5.23-.69.76-.4 1.17.18.26.54.43.9.43.18 0 .36-.03.54-.11a60.2 60.2 0 0 1 25.3-5.48c6.24 0 12.63.99 18.52 2.85.53.18 1.14-.05 1.36-.46.18-.47-.07-.96-.61-1.14z"/>
  <path fill="#37474f" d="M119.99 55.69a64.82 64.82 0 0 0-19.27-2.97 62.76 62.76 0 0 0-26.34 5.7c-.5.24-.69.76-.4 1.17.18.27.54.44.9.44.18 0 .36-.03.54-.12a60.2 60.2 0 0 1 25.3-5.47c6.24 0 12.63.99 18.52 2.85.53.18 1.14-.06 1.36-.47.18-.46-.07-.96-.61-1.13z"/>
  <path fill="#37474f" d="M119.99 59.88a64.82 64.82 0 0 0-19.27-2.97 62.76 62.76 0 0 0-26.34 5.71c-.5.24-.69.76-.4 1.17a1.2 1.2 0 0 0 1.44.32 60.2 60.2 0 0 1 25.3-5.48c6.24 0 12.63 1 18.52 2.86.53.17 1.14-.06 1.36-.47.18-.47-.07-.96-.61-1.14z"/>
  <path fill="#37474f" d="M100.72 61.22a62.76 62.76 0 0 0-26.34 5.72c-.5.23-.69.75-.4 1.16a1.2 1.2 0 0 0 1.44.32 60.2 60.2 0 0 1 25.3-5.48c.57 0 1.04-.37 1.04-.84 0-.5-.47-.88-1.04-.88z"/>
  <g fill="none">
    <path d="M14.8 32.29c-.54.17-.79.67-.57 1.1.21.44.82.65 1.36.47a61.66 61.66 0 0 1 18.52-2.85c8.69 0 17.26 1.83 24.83 5.27v-1.95a64.07 64.07 0 0 0-44.14-2.04z"/>
    <path d="M14.8 36.48c-.54.18-.79.67-.57 1.11.21.44.82.64 1.36.47a61.66 61.66 0 0 1 18.52-2.86c8.69 0 17.26 1.84 24.83 5.28v-1.96a62.97 62.97 0 0 0-24.83-5.04 65.08 65.08 0 0 0-19.3 3zm0-19.26c-.54.18-.79.67-.57 1.11.21.44.82.64 1.36.47a61.66 61.66 0 0 1 18.52-2.86c8.69 0 17.26 1.84 24.83 5.27v-1.95a62.97 62.97 0 0 0-24.83-5.04 67.02 67.02 0 0 0-19.3 3zm0 34.28c-.54.17-.79.66-.57 1.1.21.44.82.64 1.36.47a61.66 61.66 0 0 1 18.52-2.86c8.69 0 17.26 1.84 24.83 5.27v-1.95a62.97 62.97 0 0 0-24.83-5.04 67.02 67.02 0 0 0-19.3 3z"/>
    <path d="M14.8 40.68c-.54.18-.79.67-.57 1.1.21.45.82.65 1.36.47a61.66 61.66 0 0 1 18.52-2.85c8.69 0 17.26 1.83 24.83 5.27v-1.95a62.97 62.97 0 0 0-24.83-5.04 65.08 65.08 0 0 0-19.3 3zm0-19.26c-.54.17-.79.67-.57 1.1.21.44.82.65 1.36.47a61.66 61.66 0 0 1 18.52-2.85c8.69 0 17.26 1.83 24.83 5.27v-1.95a62.97 62.97 0 0 0-24.83-5.04 67.02 67.02 0 0 0-19.3 3zm19.27 39.72a64.1 64.1 0 0 0-19.27 2.97c-.54.17-.79.67-.57 1.1.14.33.54.53.97.53.14 0 .25-.03.4-.06a61.66 61.66 0 0 1 18.51-2.85c.57 0 1.04-.38 1.04-.85-.03-.46-.5-.84-1.08-.84zm66.65-49.37c6.24 0 12.63 1 18.52 2.86.53.17 1.14-.06 1.36-.47.21-.43-.07-.93-.58-1.1a64.82 64.82 0 0 0-19.27-2.98 62.97 62.97 0 0 0-24.83 5.04v1.96a59.7 59.7 0 0 1 24.8-5.3zM14.8 13.03c-.54.17-.79.67-.57 1.1.21.44.82.64 1.36.47a61.66 61.66 0 0 1 18.52-2.86c8.69 0 17.26 1.84 24.83 5.28v-1.95a62.97 62.97 0 0 0-24.83-5.05 67.02 67.02 0 0 0-19.3 3z"/>
    <path d="M15.2 27.25c.14 0 .25-.03.4-.06a61.66 61.66 0 0 1 29.96-1.78c.57.12 1.11-.17 1.25-.64.15-.47-.21-.9-.79-1.02a64.07 64.07 0 0 0-31.22 1.87c-.54.17-.79.67-.57 1.1.14.32.54.53.97.53zm0 19.25c.14 0 .25-.02.4-.05a61.66 61.66 0 0 1 18.51-2.86c.57 0 1.04-.37 1.04-.84s-.47-.85-1.04-.85a63.8 63.8 0 0 0-19.27 2.98c-.54.17-.8.67-.58 1.1.11.32.5.53.94.53zm44.18-29.25c.17.09.35.12.5.12.36 0 .72-.15.9-.44.28-.4.1-.93-.4-1.16-.5-.24-1-.47-1.5-.68v1.96c.17.08.32.14.5.2zm0 8.39c.17.1.35.12.5.12.36 0 .72-.15.9-.44.28-.4.1-.93-.4-1.16-.5-.24-1-.47-1.5-.67v1.95c.17.09.32.15.5.2zm0 10.87c.17.1.35.12.5.12.36 0 .72-.15.9-.44.28-.4.1-.93-.4-1.16-.5-.24-1-.47-1.5-.67v1.95l.5.2zm0 4.2c.17.09.35.12.5.12.36 0 .72-.15.9-.44.28-.4.1-.93-.4-1.17-.5-.23-1-.46-1.5-.67v1.96c.17.05.32.11.5.2zM14.8 55.69c-.54.17-.79.67-.57 1.1.21.44.82.65 1.36.47a61.66 61.66 0 0 1 18.52-2.85c8.69 0 17.26 1.83 24.83 5.27v-1.95a62.97 62.97 0 0 0-24.83-5.04 67.02 67.02 0 0 0-19.3 3zm85.92-39.72c6.24 0 12.63.99 18.52 2.85.53.18 1.14-.05 1.36-.46.21-.44-.07-.93-.58-1.1a64.82 64.82 0 0 0-19.27-2.98 62.97 62.97 0 0 0-24.83 5.04v1.95a59.7 59.7 0 0 1 24.8-5.3zm-41.34 5.48c.17.09.35.11.5.11.36 0 .72-.14.9-.43.28-.41.1-.94-.4-1.17-.5-.23-1-.46-1.5-.67v1.95c.17.1.32.15.5.2zm0 42.66c.17.09.35.12.5.12.36 0 .72-.15.9-.44.28-.4.1-.93-.4-1.17-.5-.23-1-.46-1.5-.67v1.96c.17.05.32.14.5.2z"/>
    <path d="M14.8 59.88c-.54.18-.79.67-.57 1.11.21.44.82.64 1.36.47a61.66 61.66 0 0 1 18.52-2.86c8.69 0 17.26 1.84 24.83 5.28v-1.96a62.97 62.97 0 0 0-24.83-5.04 67.02 67.02 0 0 0-19.3 3zm44.58.03c.17.1.35.12.5.12.36 0 .72-.15.9-.44.28-.4.1-.93-.4-1.16-.5-.24-1-.47-1.5-.67v1.95c.17.09.32.15.5.2zm0-4.19c.17.08.35.11.5.11.36 0 .72-.14.9-.43.28-.41.1-.94-.4-1.17-.5-.23-1-.47-1.5-.67v1.95c.17.1.32.15.5.2zm0-10.82c.17.1.35.12.5.12.36 0 .72-.14.9-.43.28-.41.1-.94-.4-1.17-.5-.23-1-.47-1.5-.67v1.95l.5.2zm14.64 14.7c.18.26.54.43.9.43.17 0 .35-.03.53-.12.15-.05.29-.14.47-.2v-1.95c-.5.2-1 .43-1.5.67-.51.26-.69.78-.4 1.16zm0-4.17c.18.26.54.43.9.43.17 0 .35-.03.53-.11.15-.06.29-.15.47-.2v-1.96c-.5.2-1 .44-1.5.67-.51.23-.69.76-.4 1.17zm0-6.65a1.2 1.2 0 0 0 1.44.32c.14-.06.28-.14.46-.2v-1.93c-.5.2-1 .44-1.5.68-.51.2-.69.72-.4 1.13zm0 15.01a1.2 1.2 0 0 0 1.44.32c.14-.06.28-.15.46-.2v-1.96c-.5.2-1 .44-1.5.67-.51.27-.69.79-.4 1.17zm0 4.31a1.2 1.2 0 0 0 1.44.32c.14-.06.28-.14.46-.2v-1.95c-.5.2-1 .43-1.5.67-.51.23-.69.75-.4 1.16zm0-23.51c.18.26.54.43.9.43.17 0 .35-.03.53-.11.15-.06.29-.15.47-.2v-1.96c-.5.2-1 .44-1.5.67-.51.23-.69.76-.4 1.17zm0-4.2a1.2 1.2 0 0 0 1.44.32c.14-.06.28-.15.46-.2v-1.96c-.5.2-1 .44-1.5.67-.51.24-.69.76-.4 1.17zm0-19.23c.18.26.54.43.9.43.17 0 .35-.03.53-.11.15-.06.29-.15.47-.2v-1.96c-.5.2-1 .44-1.5.67-.51.23-.69.76-.4 1.17z"/>
    <path d="M100.72 62.91c.57 0 1.04-.37 1.04-.84s-.47-.85-1.04-.85a62.97 62.97 0 0 0-24.84 5.05v1.95a60 60 0 0 1 24.84-5.3zm-26.7-37.56a1.2 1.2 0 0 0 1.44.32c.14-.06.28-.14.46-.2v-1.95c-.5.2-1 .43-1.5.67-.51.23-.69.75-.4 1.16zm0 10.85c.18.26.54.43.9.43.17 0 .35-.03.53-.12.15-.05.29-.14.47-.2v-1.95c-.5.2-1 .43-1.5.67-.51.23-.69.75-.4 1.16z"/>
    <path d="M100.72 58.63c6.24 0 12.63 1 18.52 2.86.53.17 1.14-.06 1.36-.47.21-.44-.07-.93-.58-1.1a64.82 64.82 0 0 0-19.27-2.98 62.97 62.97 0 0 0-24.83 5.04v1.95a59.7 59.7 0 0 1 24.8-5.3zm0-27.63c6.24 0 12.63 1 18.52 2.86.53.18 1.14-.06 1.36-.46.21-.44-.07-.94-.58-1.11a64.82 64.82 0 0 0-19.27-2.97 62.97 62.97 0 0 0-24.83 5.04v1.95a59.7 59.7 0 0 1 24.8-5.3zm0-10.83c6.24 0 12.63.99 18.52 2.85.53.18 1.14-.06 1.36-.47.21-.43-.07-.93-.58-1.1a64.82 64.82 0 0 0-19.27-2.97 62.97 62.97 0 0 0-24.83 5.04v1.95a59.7 59.7 0 0 1 24.8-5.3zm-26.7-3.21a1.2 1.2 0 0 0 1.44.32c.14-.06.28-.15.46-.2v-1.96c-.5.2-1 .44-1.5.67-.51.24-.69.76-.4 1.17z"/>
    <path d="M100.72 35.2c6.24 0 12.63 1 18.52 2.86.53.17 1.14-.06 1.36-.47.21-.44-.07-.93-.58-1.1a64.82 64.82 0 0 0-19.27-2.98 62.97 62.97 0 0 0-24.83 5.04v1.96a59.7 59.7 0 0 1 24.8-5.3zm0 15.04c6.24 0 12.63.99 18.52 2.85.53.18 1.14-.05 1.36-.46.21-.44-.07-.93-.58-1.1a64.82 64.82 0 0 0-19.27-2.98 62.97 62.97 0 0 0-24.83 5.04v1.95a59.7 59.7 0 0 1 24.8-5.3z"/>
    <path d="M100.72 54.44c6.24 0 12.63.99 18.52 2.85.53.18 1.14-.06 1.36-.47.21-.43-.07-.93-.58-1.1a64.82 64.82 0 0 0-19.27-2.98 62.97 62.97 0 0 0-24.83 5.05v1.95a59.7 59.7 0 0 1 24.8-5.3zm0-15.04c6.24 0 12.63.99 18.52 2.85.53.18 1.14-.05 1.36-.46.21-.44-.07-.93-.58-1.1a64.82 64.82 0 0 0-19.27-2.98 62.97 62.97 0 0 0-24.83 5.04v1.95a59.7 59.7 0 0 1 24.8-5.3z"/>
    <path d="M84.28 45.84c.54-.15.83-.64.65-1.08-.18-.44-.8-.67-1.33-.52a57.43 57.43 0 0 0-7.72 2.73v1.93c2.7-1.23 5.5-2.27 8.4-3.06z"/>
  </g>
  <path fill="#5ac2ef" d="M98.96 78.6a63.62 63.62 0 0 0-29.07 6.84l-1.58.82s-.03 0-.03.03l-.04.03c-.04 0-.04.02-.07.02a.11.11 0 0 0-.07.03c-.04 0-.08.03-.15.03-.03 0-.07.03-.07.03l-.14.03h-.58l-.14-.03c-.04 0-.07 0-.07-.03-.04 0-.07-.03-.15-.03-.03 0-.07-.03-.07-.03-.03 0-.03-.02-.07-.02l-.04-.03s-.03 0-.03-.03L65 85.44a63.73 63.73 0 0 0-29.07-6.85 65.2 65.2 0 0 0-24.26 4.64c-.5.2-1.15.17-1.61-.06-.5-.24-.8-.67-.8-1.17v-2.53c-.25.08-.5.2-.75.29-.5.2-1.15.17-1.61-.06-.5-.23-.8-.67-.8-1.17v-67.8c-.71.23-1.4.49-2.07.75v75.7a80.12 80.12 0 0 1 27.13-4.71c12.41 0 24.5 2.8 35.02 8.13h2.7a78.05 78.05 0 0 1 35.02-8.13c5.7 0 11.38.61 16.9 1.78V82.2a68.63 68.63 0 0 0-21.85-3.62Z"/>
  <path fill="#3bb2e6" d="M130.9 11.51c-.68-.26-1.4-.52-2.08-.76v67.81c0 .47-.29.9-.8 1.17-.5.23-1.1.26-1.6.06-.26-.09-.51-.2-.76-.3v2.54c0 .47-.29.9-.79 1.17-.5.23-1.11.26-1.62.06a36.8 36.8 0 0 0-2.54-.97v2.04c3.51.76 6.92 1.72 10.22 2.92V11.5Z"/>
</svg>
