<?xml version="1.0" encoding="iso-8859-1"?>
<!-- Generator: Adobe Illustrator 19.0.0, SVG Export Plug-In . SVG Version: 6.00 Build 0)  -->
<svg version="1.1" id="Layer_1" xmlns="http://www.w3.org/2000/svg" xmlns:xlink="http://www.w3.org/1999/xlink" x="0px" y="0px"
	 viewBox="0 0 350 350" style="enable-background:new 0 0 350 350;" xml:space="preserve">
<g id="XMLID_1274_">
	<rect id="XMLID_1275_" x="115" y="260" style="fill:#00D7DF;" width="50" height="60"/>
	<rect id="XMLID_1276_" x="185" y="260" style="fill:#00D7DF;" width="50" height="60"/>
	<rect id="XMLID_1277_" x="115" y="290" style="fill:#00A0A6;" width="50" height="30"/>
	<rect id="XMLID_1278_" x="185" y="290" style="fill:#00A0A6;" width="50" height="30"/>
	<rect id="XMLID_1279_" x="105" y="310" style="fill:#AF2768;" width="60" height="40"/>
	<rect id="XMLID_1280_" x="185" y="310" style="fill:#EA348B;" width="60" height="40"/>
	<rect id="XMLID_1281_" x="85" y="170" style="fill:#00D7DF;" width="40" height="100"/>
	<rect id="XMLID_1282_" x="225" y="170" style="fill:#00D7DF;" width="40" height="100"/>
	<rect id="XMLID_1283_" x="225" y="100" style="fill:#EA348B;" width="30" height="40"/>
	<path id="XMLID_1284_" style="fill:#00D7DF;" d="M205,30c0-16.568-13.432-30-30-30s-30,13.432-30,30
		c0,11.102,6.036,20.789,15,25.977V80h15h15V55.977C198.964,50.789,205,41.102,205,30z"/>
	<path id="XMLID_1285_" style="fill:#00A0A6;" d="M145,30c0,11.102,6.036,20.789,15,25.977V80h15V60V50V0
		C158.432,0,145,13.432,145,30z"/>
	<circle id="XMLID_1286_" style="fill:#FFFFFF;" cx="175" cy="30" r="10"/>
	<rect id="XMLID_1287_" x="115" y="70" style="fill:#FFDA44;" width="120" height="120"/>
	<rect id="XMLID_1288_" x="95" y="100" style="fill:#AF2768;" width="30" height="40"/>
	<rect id="XMLID_1289_" x="115" y="70" style="fill:#FF9811;" width="60" height="100"/>
	<rect id="XMLID_1290_" x="235" y="190" style="fill:#00A0A6;" width="30" height="20"/>
	<rect id="XMLID_1291_" x="235" y="230" style="fill:#00A0A6;" width="30" height="20"/>
	<rect id="XMLID_1292_" x="85" y="190" style="fill:#00A0A6;" width="30" height="20"/>
	<rect id="XMLID_1293_" x="85" y="230" style="fill:#00A0A6;" width="30" height="20"/>
	<circle id="XMLID_1294_" style="fill:#003638;" cx="145" cy="120" r="10"/>
	<circle id="XMLID_1295_" style="fill:#003638;" cx="205" cy="120" r="10"/>
	<rect id="XMLID_1296_" x="115" y="170" style="fill:#EA348B;" width="120" height="100"/>
	<rect id="XMLID_1297_" x="115" y="170" style="fill:#AF2768;" width="60" height="100"/>
	<polygon id="XMLID_1298_" style="fill:#FFFFFF;" points="175,190 183.514,207.252 202.553,210.018 188.776,223.447 
		192.028,242.408 175,233.456 157.972,242.408 161.224,223.447 147.447,210.018 166.486,207.252 	"/>
</g>
<g>
</g>
<g>
</g>
<g>
</g>
<g>
</g>
<g>
</g>
<g>
</g>
<g>
</g>
<g>
</g>
<g>
</g>
<g>
</g>
<g>
</g>
<g>
</g>
<g>
</g>
<g>
</g>
<g>
</g>
</svg>
