<?xml version="1.0" encoding="iso-8859-1"?>
<!-- Generator: Adobe Illustrator 19.0.0, SVG Export Plug-In . SVG Version: 6.00 Build 0)  -->
<svg version="1.1" id="Layer_1" xmlns="http://www.w3.org/2000/svg" xmlns:xlink="http://www.w3.org/1999/xlink" x="0px" y="0px"
	 viewBox="0 0 297 297" style="enable-background:new 0 0 297 297;" xml:space="preserve">
<g>
	<g id="XMLID_40_">
		<g>
			<polygon style="fill:#3498DB;" points="274.85,138.12 251.33,169.71 227.8,138.12 			"/>
			<rect x="20.53" y="48.68" style="fill:#3498DB;" width="148.83" height="23.51"/>
			<rect x="20.53" y="136.75" style="fill:#2980B9;" width="148.83" height="23.5"/>
			<rect x="20.53" y="224.81" style="fill:#356272;" width="148.83" height="23.51"/>
			<path d="M294.98,128.02c1.35,2.7,2.02,5.61,2.02,8.5c0,3.98-1.27,7.94-3.76,11.28l-26.75,35.91c-3.6,4.84-9.13,7.62-15.16,7.62
				c-6.04,0-11.56-2.78-15.17-7.62l-26.75-35.91c-4.29-5.77-4.96-13.35-1.73-19.78c3.23-6.43,9.7-10.43,16.9-10.43h53.5
				C285.27,117.59,291.75,121.59,294.98,128.02z M251.33,169.71l23.52-31.59H227.8L251.33,169.71z"/>
			<path d="M189.88,224.51v24.11c0,11.15-9.07,20.22-20.22,20.22H20.23C9.08,268.84,0,259.77,0,248.62v-24.11
				c0-11.15,9.08-20.23,20.23-20.23h149.43C180.81,204.28,189.88,213.36,189.88,224.51z M169.36,248.32v-23.51H20.53v23.51H169.36z"
				/>
			<path d="M189.88,136.44v24.12c0,11.15-9.07,20.22-20.22,20.22H20.23C9.08,180.78,0,171.71,0,160.56v-24.12
				c0-11.15,9.08-20.22,20.23-20.22h149.43C180.81,116.22,189.88,125.29,189.88,136.44z M169.36,160.25v-23.5H20.53v23.5H169.36z"/>
			<path d="M189.88,48.38v24.11c0,11.15-9.07,20.23-20.22,20.23H20.23C9.08,92.72,0,83.64,0,72.49V48.38
				c0-11.15,9.08-20.22,20.23-20.22h149.43C180.81,28.16,189.88,37.23,189.88,48.38z M169.36,72.19V48.68H20.53v23.51H169.36z"/>
		</g>
	</g>
</g>
<g>
</g>
<g>
</g>
<g>
</g>
<g>
</g>
<g>
</g>
<g>
</g>
<g>
</g>
<g>
</g>
<g>
</g>
<g>
</g>
<g>
</g>
<g>
</g>
<g>
</g>
<g>
</g>
<g>
</g>
</svg>
