<svg version="1.1" id="Layer_1" xmlns="http://www.w3.org/2000/svg" x="0" y="0" viewBox="0 0 350 350" style="enable-background:new 0 0 350 350" xml:space="preserve"><g id="XMLID_1274_"><path id="XMLID_1275_" style="fill:#00d7df" d="M115 260h50v60h-50z"/><path id="XMLID_1276_" style="fill:#00d7df" d="M185 260h50v60h-50z"/><path id="XMLID_1277_" style="fill:#00a0a6" d="M115 290h50v30h-50z"/><path id="XMLID_1278_" style="fill:#00a0a6" d="M185 290h50v30h-50z"/><path id="XMLID_1279_" style="fill:#af2768" d="M105 310h60v40h-60z"/><path id="XMLID_1280_" style="fill:#ea348b" d="M185 310h60v40h-60z"/><path id="XMLID_1281_" style="fill:#00d7df" d="M85 170h40v100H85z"/><path id="XMLID_1282_" style="fill:#00d7df" d="M225 170h40v100h-40z"/><path id="XMLID_1283_" style="fill:#ea348b" d="M225 100h30v40h-30z"/><path id="XMLID_1284_" style="fill:#00d7df" d="M205 30c0-16.568-13.432-30-30-30s-30 13.432-30 30c0 11.102 6.036 20.789 15 25.977V80h30V55.977c8.964-5.188 15-14.875 15-25.977z"/><path id="XMLID_1285_" style="fill:#00a0a6" d="M145 30c0 11.102 6.036 20.789 15 25.977V80h15V0c-16.568 0-30 13.432-30 30z"/><circle id="XMLID_1286_" style="fill:#fff" cx="175" cy="30" r="10"/><path id="XMLID_1287_" style="fill:#ffda44" d="M115 70h120v120H115z"/><path id="XMLID_1288_" style="fill:#af2768" d="M95 100h30v40H95z"/><path id="XMLID_1289_" style="fill:#ff9811" d="M115 70h60v100h-60z"/><path id="XMLID_1290_" style="fill:#00a0a6" d="M235 190h30v20h-30z"/><path id="XMLID_1291_" style="fill:#00a0a6" d="M235 230h30v20h-30z"/><path id="XMLID_1292_" style="fill:#00a0a6" d="M85 190h30v20H85z"/><path id="XMLID_1293_" style="fill:#00a0a6" d="M85 230h30v20H85z"/><circle id="XMLID_1294_" style="fill:#003638" cx="145" cy="120" r="10"/><circle id="XMLID_1295_" style="fill:#003638" cx="205" cy="120" r="10"/><path id="XMLID_1296_" style="fill:#ea348b" d="M115 170h120v100H115z"/><path id="XMLID_1297_" style="fill:#af2768" d="M115 170h60v100h-60z"/><path id="XMLID_1298_" style="fill:#fff" d="m175 190 8.514 17.252 19.039 2.766-13.777 13.429 3.252 18.961L175 233.456l-17.028 8.952 3.252-18.961-13.777-13.429 19.039-2.766z"/></g></svg>