<svg version="1.1" id="Layer_1" xmlns="http://www.w3.org/2000/svg" x="0" y="0" viewBox="0 0 512 512" style="enable-background:new 0 0 512 512" xml:space="preserve"><path style="fill:#464655" d="M494.345 79.448h-65.758c-.375.46-.778.906-1.207 1.335l-25.128 25.128-.019.02h83.284v247.172H26.483V105.931h225.303l26.483-26.483H17.655C7.904 79.448 0 87.352 0 97.103v282.483h512V97.103c0-9.751-7.905-17.655-17.655-17.655z"/><path style="fill:#fff" d="m168.948 297.242-39.194 16.798a8.278 8.278 0 0 1-3.8.678c-3.849-.244-7.055-3.27-7.633-7.034a8.152 8.152 0 0 1 .579-4.495l11.39-26.577 36.888-86.072 84.608-84.608H26.483v247.172h459.034V105.931h-83.284l-159.83 159.83-73.455 31.481z"/><path style="fill:#bec8dc" d="M0 414.897c0 9.751 7.904 17.655 17.655 17.655h476.689c9.75 0 17.655-7.904 17.655-17.655v-35.31H0v35.31zm256-22.069c7.313 0 13.241 5.929 13.241 13.241S263.313 419.31 256 419.31s-13.241-5.929-13.241-13.241 5.928-13.241 13.241-13.241z"/><path style="fill:#afbbd0" d="M177.655 494.345h156.69l-5.517-44.138H183.172z"/><path style="fill:#bec8dc" d="M176.552 494.345a8.829 8.829 0 0 0 0 17.656h158.897a8.829 8.829 0 0 0 0-17.656H176.552z"/><path style="fill:#96a5b9" d="M183.172 450.207h145.656l-2.207-17.655H185.379z"/><circle style="fill:#96a5b9" cx="256" cy="406.069" r="13.241"/><path style="fill:#d75055" d="m167.179 190.538 37.612 37.612L364.641 68.3l-18.806-18.806-18.806-18.806-48.76 48.76-26.483 26.483z"/><path style="fill:#ff6469" d="M364.641 68.299v.001l-159.85 159.85 37.612 37.611 159.83-159.83.02-.02z"/><path style="fill:#fff0be" d="m327.029 30.688 18.806 18.806zM402.253 105.911l25.128-25.128c.429-.429.831-.875 1.207-1.335 5.661-6.934 5.259-17.167-1.207-23.633l-25.128-25.128L364.641 68.3l37.612 37.611zM118.321 307.682c.577 3.765 3.784 6.792 7.633 7.034-3.85-.242-7.056-3.268-7.633-7.034zM176.583 293.971l-7.635 3.271 73.455-31.481-37.612-37.611-47.014 47.015z"/><path style="fill:#ffdc9b" d="m130.291 276.611 8.679-20.252 18.807 18.806 47.014-47.015-37.612-37.612-36.888 86.072z"/><path style="fill:#d75055" d="m157.777 275.165-18.806-18.806-8.68 20.253-11.39 26.577a8.135 8.135 0 0 0-.579 4.495c.577 3.765 3.784 6.792 7.633 7.034a8.278 8.278 0 0 0 3.8-.678l39.194-16.798 7.634-3.272-18.806-18.805z"/><path style="fill:#ffdc9b" d="m364.641 68.3 37.612-37.612-25.791-25.792c-6.529-6.528-17.113-6.528-23.642 0l-25.791 25.792 18.806 18.806L364.641 68.3z"/></svg>