<svg version="1.1" id="Layer_1" xmlns="http://www.w3.org/2000/svg" x="0" y="0" viewBox="0 0 297 297" style="enable-background:new 0 0 297 297" xml:space="preserve"><g id="XMLID_40_"><path style="fill:#3498db" d="m274.85 138.12-23.52 31.59-23.53-31.59zM20.53 48.68h148.83v23.51H20.53z"/><path style="fill:#2980b9" d="M20.53 136.75h148.83v23.5H20.53z"/><path style="fill:#356272" d="M20.53 224.81h148.83v23.51H20.53z"/><path d="M294.98 128.02c1.35 2.7 2.02 5.61 2.02 8.5 0 3.98-1.27 7.94-3.76 11.28l-26.75 35.91c-3.6 4.84-9.13 7.62-15.16 7.62-6.04 0-11.56-2.78-15.17-7.62l-26.75-35.91c-4.29-5.77-4.96-13.35-1.73-19.78 3.23-6.43 9.7-10.43 16.9-10.43h53.5c7.19 0 13.67 4 16.9 10.43zm-43.65 41.69 23.52-31.59H227.8l23.53 31.59zM189.88 224.51v24.11c0 11.15-9.07 20.22-20.22 20.22H20.23C9.08 268.84 0 259.77 0 248.62v-24.11c0-11.15 9.08-20.23 20.23-20.23h149.43c11.15 0 20.22 9.08 20.22 20.23zm-20.52 23.81v-23.51H20.53v23.51h148.83zM189.88 136.44v24.12c0 11.15-9.07 20.22-20.22 20.22H20.23C9.08 180.78 0 171.71 0 160.56v-24.12c0-11.15 9.08-20.22 20.23-20.22h149.43c11.15 0 20.22 9.07 20.22 20.22zm-20.52 23.81v-23.5H20.53v23.5h148.83zM189.88 48.38v24.11c0 11.15-9.07 20.23-20.22 20.23H20.23C9.08 92.72 0 83.64 0 72.49V48.38c0-11.15 9.08-20.22 20.23-20.22h149.43c11.15 0 20.22 9.07 20.22 20.22zm-20.52 23.81V48.68H20.53v23.51h148.83z"/></g></svg>