<svg version="1.1" id="Capa_1" xmlns="http://www.w3.org/2000/svg" x="0" y="0" viewBox="0 0 60 60" style="enable-background:new 0 0 60 60" xml:space="preserve"><path style="fill:#ecf0f1" d="M1 4.5h55v42H1z"/><path style="fill:#545e73" d="M57 47.5H0v-44h57v44zm-55-2h53v-40H2v40z"/><path style="fill:#545e73" d="M5 8.5h47v34H5z"/><path style="fill:#ecf0f1" d="M53 43.5H4v-36h49v36zm-47-2h45v-32H6v32z"/><circle style="fill:#f3d55a" cx="15" cy="17.069" r="4.569"/><path style="fill:#11a085" d="M51 32.611 50 31.5l-12-11L27.5 32l5.483 5.483L37 41.5h14z"/><path style="fill:#26b999" d="M6 41.5h31l-4.017-4.017-10.966-10.966L6 40.5z"/><circle style="fill:#26b999" cx="48" cy="44.5" r="12"/><path style="fill:#fff" d="M54.571 38.679a.999.999 0 0 0-1.392.25l-5.596 8.04-3.949-3.242a.999.999 0 1 0-1.268 1.546l4.786 3.929a1.003 1.003 0 0 0 1.455-.201l6.214-8.929a1.002 1.002 0 0 0-.25-1.393z"/></svg>